<svg xmlns="http://www.w3.org/2000/svg" xmlns:xlink="http://www.w3.org/1999/xlink" width="500" zoomAndPan="magnify" viewBox="0 0 375 374.999991" height="500" preserveAspectRatio="xMidYMid meet" version="1.0"><defs><clipPath id="f8885a1489"><path d="M 64 92 L 312 92 L 312 307 L 64 307 Z M 64 92 " clip-rule="nonzero"></path></clipPath><clipPath id="c705a7c57d"><path d="M 312.042969 306.171875 L 65.292969 306.53125 L 64.980469 92.78125 L 311.730469 92.421875 Z M 312.042969 306.171875 " clip-rule="nonzero"></path></clipPath><clipPath id="dc87d43f81"><path d="M 312.042969 306.171875 L 65.292969 306.53125 L 64.980469 92.78125 L 311.730469 92.421875 Z M 312.042969 306.171875 " clip-rule="nonzero"></path></clipPath><clipPath id="03d957e4b6"><path d="M 312.042969 306.171875 L 65.292969 306.53125 L 64.980469 92.78125 L 311.730469 92.421875 Z M 312.042969 306.171875 " clip-rule="nonzero"></path></clipPath><clipPath id="f0420ab18f"><path d="M 58.710938 69.089844 L 315.210938 69.089844 L 315.210938 73.589844 L 58.710938 73.589844 Z M 58.710938 69.089844 " clip-rule="nonzero"></path></clipPath><clipPath id="959b9e8852"><path d="M 39 94 L 171 94 L 171 317 L 39 317 Z M 39 94 " clip-rule="nonzero"></path></clipPath><clipPath id="c8dd29617e"><path d="M 41.984375 93.554688 L 171.0625 315.210938 L 167.175781 317.476562 L 38.097656 95.820312 Z M 41.984375 93.554688 " clip-rule="nonzero"></path></clipPath><clipPath id="5c4e6ba51c"><path d="M 41.984375 93.554688 L 171.0625 315.210938 L 167.175781 317.476562 L 38.097656 95.820312 Z M 41.984375 93.554688 " clip-rule="nonzero"></path></clipPath><clipPath id="32f81825b1"><path d="M 206 94 L 337 94 L 337 317 L 206 317 Z M 206 94 " clip-rule="nonzero"></path></clipPath><clipPath id="0461f43cbc"><path d="M 337.488281 95.496094 L 209.101562 317.550781 L 205.207031 315.300781 L 333.59375 93.242188 Z M 337.488281 95.496094 " clip-rule="nonzero"></path></clipPath><clipPath id="93d820860f"><path d="M 337.488281 95.496094 L 209.101562 317.550781 L 205.207031 315.300781 L 333.59375 93.242188 Z M 337.488281 95.496094 " clip-rule="nonzero"></path></clipPath></defs><g clip-path="url('#f8885a1489')"><g clip-path="url('#c705a7c57d')"><g clip-path="url('#dc87d43f81')"><g clip-path="url('#03d957e4b6')"><path fill="#ffffff" d="M 64.980469 92.808594 L 311.730469 92.449219 L 188.667969 306.320312 Z M 300.339844 99.03125 L 76.390625 99.359375 L 188.648438 293.144531 Z M 300.339844 99.03125 " fill-opacity="1" fill-rule="nonzero"></path></g></g></g></g><g clip-path="url('#f0420ab18f')"><path fill="#ffffff" d="M 315.136719 71.222656 C 315.136719 72.390625 314.191406 73.335938 313.023438 73.335938 L 60.828125 73.335938 C 59.660156 73.335938 58.710938 72.390625 58.710938 71.222656 C 58.710938 70.054688 59.660156 69.109375 60.828125 69.109375 L 313.023438 69.109375 C 314.191406 69.109375 315.136719 70.054688 315.136719 71.222656 Z M 315.136719 71.222656 " fill-opacity="1" fill-rule="nonzero"></path></g><g clip-path="url('#959b9e8852')"><g clip-path="url('#c8dd29617e')"><g clip-path="url('#5c4e6ba51c')"><path fill="#ffffff" d="M 169.183594 316.222656 C 168.175781 316.808594 166.878906 316.46875 166.292969 315.457031 L 39.378906 97.519531 C 38.792969 96.511719 39.136719 95.21875 40.144531 94.628906 C 41.152344 94.042969 42.445312 94.382812 43.035156 95.394531 L 169.945312 313.332031 C 170.535156 314.339844 170.191406 315.632812 169.183594 316.222656 Z M 169.183594 316.222656 " fill-opacity="1" fill-rule="nonzero"></path></g></g></g><g clip-path="url('#32f81825b1')"><g clip-path="url('#0461f43cbc')"><g clip-path="url('#93d820860f')"><path fill="#ffffff" d="M 207.292969 316.421875 C 206.28125 315.835938 205.933594 314.542969 206.519531 313.535156 L 332.753906 95.203125 C 333.335938 94.191406 334.628906 93.84375 335.640625 94.429688 C 336.652344 95.015625 336.996094 96.308594 336.414062 97.316406 L 210.179688 315.648438 C 209.59375 316.660156 208.300781 317.007812 207.292969 316.421875 Z M 207.292969 316.421875 " fill-opacity="1" fill-rule="nonzero"></path></g></g></g></svg>